HIERARCHY
	ROOT pelvis
	{
		OFFSET 0 0 0 
		CHANNELS 6 Xposition Yposition Zposition Zrotation Xrotation Yrotation
		JOINT lfemur_phantom
		{
			OFFSET 0 0.0899607 0 
			CHANNELS 3 Zrotation Xrotation Yrotation
			JOINT lfemur
			{
				OFFSET 0 0 -0.426035 
				CHANNELS 3 Zrotation Xrotation Yrotation
				JOINT ltibia
				{
					OFFSET 0 0 -0.409933 
					CHANNELS 3 Zrotation Xrotation Yrotation
					JOINT lfoot
					{
						OFFSET 0.105631 0 0.00135511 
						CHANNELS 3 Zrotation Xrotation Yrotation
						End Site
						{
							OFFSET 0.0352103 0 0.000451703
						}
					}
				}
			}
		}
		JOINT rfemur_phantom
		{
			OFFSET 0 -0.0899607 0 
			CHANNELS 3 Zrotation Xrotation Yrotation
			JOINT rfemur
			{
				OFFSET 0 0 -0.430137 
				CHANNELS 3 Zrotation Xrotation Yrotation
				JOINT rtibia
				{
					OFFSET 0 0 -0.390377 
					CHANNELS 3 Zrotation Xrotation Yrotation
					JOINT rfoot
					{
						OFFSET 0.106801 0 -0.00121178 
						CHANNELS 3 Zrotation Xrotation Yrotation
						End Site
						{
							OFFSET 0.0356003 0 -0.000403927
						}
					}
				}
			}
		}
		JOINT lowerback_phantom
		{
			OFFSET -0.05 0 0.107967 
			CHANNELS 3 Zrotation Xrotation Yrotation
			JOINT lowerback
			{
				OFFSET 0.0167886 0 0.161801 
				CHANNELS 3 Zrotation Xrotation Yrotation
				JOINT upperback
				{
					OFFSET 0 0 0 
					CHANNELS 3 Zrotation Xrotation Yrotation
					JOINT lclavicle_phantom
					{
						OFFSET 0 0 0.199349 
						CHANNELS 3 Zrotation Xrotation Yrotation
						JOINT lclavicle
						{
							OFFSET 0 0.164108 -0.0174105 
							CHANNELS 3 Zrotation Xrotation Yrotation
							JOINT lhumerus
							{
								OFFSET 0 0 -0.275026 
								CHANNELS 3 Zrotation Xrotation Yrotation
								JOINT lradius
								{
									OFFSET 0 0 -0.248775 
									CHANNELS 3 Zrotation Xrotation Yrotation
									End Site
									{
										OFFSET 0 0 -0.082925
									}
								}
							}
						}
					}
					JOINT rclavicle_phantom
					{
						OFFSET 0 0 0.199349 
						CHANNELS 3 Zrotation Xrotation Yrotation
						JOINT rclavicle
						{
							OFFSET 0 -0.165322 -0.0298984 
							CHANNELS 3 Zrotation Xrotation Yrotation
							JOINT rhumerus
							{
								OFFSET 0 0 -0.273337 
								CHANNELS 3 Zrotation Xrotation Yrotation
								JOINT rradius
								{
									OFFSET 0 0 -0.254845 
									CHANNELS 3 Zrotation Xrotation Yrotation
									End Site
									{
										OFFSET 0 0 -0.0849483
									}
								}
							}
						}
					}
					JOINT LowerNeck_phantom
					{
						OFFSET 0 0 0.199349 
						CHANNELS 3 Zrotation Xrotation Yrotation
						JOINT LowerNeck
						{
							OFFSET -0.0127292 -0.000602123 0.105365 
							CHANNELS 3 Zrotation Xrotation Yrotation
							End Site
							{
								OFFSET -0.00424307 -0.000200708 0.0351217
							}
						}
					}
				}
			}
		}
	}
MOTION
Frames:	18
Frame Time:	0.0166667
-0.0186008 0.895586 1.66533e-016 84.729 -67.0743 81.1624 18.0547 4.53042 0.934026 34.3076 3.67485 5.36616 -3.94042 -12.8222 27.7567 9.13246e-006 1.85673e-006 8.2724 -2.73946 -10.4328 -1.09443 -25.8075 -5.06749 10.3514 6.56256 12.3324 16.6918 2.30963e-007 4.10227e-007 29.2508 0.398316 0.258794 4.99497 3.88134 4.04073 2.50405 -0 0 -0 -9.66595 -12.8894 -2.17583 40.5875 28.595 -14.5083 -3.75656 -6.26229 -121.045 -2.19503e-008 7.11007 -20.6931 2.23593 0.808615 -0.031571 32.9256 -35.8359 -24.6961 7.69218 9.45995 -129.413 -1.50102e-007 -4.8947 -11.205 -2.15117 -0.77705 39.8621 34.3996 -37.6642 -63.3314 
-0.0185492 0.895568 0.000111 84.7535 -67.0087 81.1779 18.0172 4.53826 0.92427 34.2866 3.67868 5.37591 -3.94198 -12.8284 27.7579 4.641e-006 -3.84873e-006 8.25968 -2.76279 -10.4232 -1.10536 -25.8199 -5.09724 10.405 6.5561 12.3125 16.6775 7.23309e-008 -3.36033e-007 29.2074 0.360434 0.26672 5.0541 3.83965 4.06142 2.5416 -0 0 -0 -9.6418 -12.9323 -2.17739 40.5045 28.4459 -14.3593 -3.63698 -6.04364 -121.12 -7.76154e-006 7.11221 -20.5966 2.21968 0.71858 -0.0278516 33.1831 -35.2084 -24.2352 7.57483 9.41804 -129.1 -4.99741e-006 -4.87778 -11.094 -2.23057 -0.817522 39.822 34.4186 -37.717 -63.4731 
-0.0185215 0.895574 0.000239 84.7953 -66.9784 81.2056 17.9939 4.56044 0.923654 34.2652 3.67469 5.37442 -3.93135 -12.805 27.7727 3.37878e-006 3.35549e-006 8.25006 -2.69006 -10.3956 -1.09361 -25.9104 -5.13011 10.4293 6.56022 12.321 16.6787 -2.1043e-007 -6.20239e-007 29.2004 0.297462 0.310206 5.10765 3.84311 4.02655 2.56477 -0 0 -0 -9.63575 -12.9623 -2.18094 40.4895 28.3423 -14.2669 -3.66211 -6.05993 -121.227 -8.79403e-006 6.92814 -20.5984 2.25047 0.690276 -0.0271266 33.2647 -34.6941 -23.9679 7.40498 9.28453 -128.853 -4.85736e-006 -4.92668 -10.9416 -2.27007 -0.760817 39.7779 34.385 -37.7288 -63.4389 
-0.0184917 0.89557 0.000359 84.805 -66.9562 81.2048 17.9849 4.57125 0.927789 34.2503 3.67027 5.37098 -3.92586 -12.7975 27.7861 -1.23585e-005 2.79449e-006 8.24835 -2.65877 -10.3841 -1.09024 -25.9579 -5.15392 10.4549 6.56534 12.3274 16.672 -3.5792e-007 1.46735e-007 29.2001 0.269941 0.324504 5.14453 3.84609 4.02153 2.57086 -0 0 -0 -9.63672 -12.9987 -2.18719 40.4399 28.2691 -14.1852 -3.75477 -6.18874 -121.332 3.39507e-006 6.7646 -20.6227 2.26977 0.683186 -0.0270776 33.2852 -34.2744 -23.753 7.20734 9.09464 -128.661 1.18069e-006 -5.06344 -10.8154 -2.2986 -0.719706 39.7599 34.2974 -37.6767 -63.4094 
-0.0184571 0.89558 0.000484 84.822 -66.9406 81.2088 17.9908 4.5878 0.93399 34.2324 3.66406 5.36555 -3.92363 -12.8023 27.8013 -1.1378e-005 1.0022e-006 8.24979 -2.63453 -10.3688 -1.07088 -26.0006 -5.16193 10.4515 6.56825 12.3331 16.6722 -2.43836e-007 -4.65536e-007 29.2106 0.268699 0.333935 5.16857 3.84469 4.02386 2.5574 -0 0 -0 -9.62051 -13.0248 -2.18776 40.3174 28.2269 -14.127 -3.88205 -6.37836 -121.417 4.22884e-006 6.67674 -20.6841 2.31296 0.692287 -0.0279619 33.1805 -33.9409 -23.6194 6.97656 8.83098 -128.558 4.6316e-007 -5.17955 -10.7496 -2.3144 -0.643223 39.7592 34.218 -37.5676 -63.3361 
-0.0184342 0.895597 0.000605 84.8338 -66.9249 81.2186 17.9702 4.59647 0.939827 34.2433 3.65286 5.34708 -3.92141 -12.8102 27.8204 8.57018e-006 -5.50002e-006 8.2544 -2.65784 -10.3584 -1.06242 -26.0037 -5.15548 10.4373 6.57059 12.3362 16.6696 1.70129e-008 -1.93604e-007 29.2235 0.293033 0.335869 5.16468 3.8328 4.03544 2.54121 -0 0 -0 -9.57899 -13.0374 -2.18021 40.1065 28.2056 -14.1007 -3.97814 -6.52606 -121.462 -2.61724e-006 6.71256 -20.756 2.35398 0.73497 -0.030212 33.0003 -33.7812 -23.5566 6.87714 8.70621 -128.548 2.17282e-005 -5.35523 -10.7482 -2.32262 -0.570171 39.7691 34.1594 -37.399 -63.28 
-0.0184239 0.895617 0.000713 84.8422 -66.9062 81.2302 17.9151 4.59849 0.95092 34.2871 3.6362 5.31419 -3.91808 -12.8177 27.8433 -8.61246e-007 1.80089e-006 8.26141 -2.70917 -10.3526 -1.05869 -25.9843 -5.14078 10.417 6.57385 12.3411 16.667 -1.51284e-007 4.84377e-008 29.2317 0.336627 0.335976 5.14496 3.8231 4.05126 2.51715 -0 0 -0 -9.54001 -13.04 -2.1716 39.8534 28.2055 -14.1116 -4.02769 -6.60819 -121.461 -1.04912e-005 6.74185 -20.8028 2.38286 0.800924 -0.0333269 32.751 -33.7656 -23.5508 6.94763 8.77791 -128.608 -2.07744e-006 -5.49093 -10.7793 -2.33489 -0.503277 39.7848 34.0883 -37.1994 -63.2153 
-0.018419 0.895631 0.000811 84.8606 -66.8791 81.2541 17.9017 4.60445 0.949285 34.2813 3.61999 5.29179 -3.91664 -12.8227 27.8554 -3.87615e-006 -3.26755e-007 8.27492 -2.78514 -10.346 -1.06033 -25.947 -5.12331 10.3993 6.57473 12.3409 16.6634 -6.64499e-008 2.08006e-008 29.236 0.388932 0.339553 5.11586 3.80929 4.06165 2.47834 -0 0 -0 -9.5025 -13.0318 -2.16157 39.5627 28.2346 -14.1439 -4.01313 -6.59246 -121.429 2.51478e-006 6.75561 -20.7855 2.40878 0.891273 -0.03749 32.456 -33.86 -23.5682 7.11614 8.9611 -128.712 4.28655e-006 -5.59263 -10.8357 -2.34059 -0.38404 39.7916 34.019 -37.0077 -63.0604 
-0.0184265 0.895646 0.000908 84.8869 -66.838 81.2847 17.8662 4.60974 0.953161 34.2828 3.59689 5.25798 -3.91199 -12.8226 27.8746 -7.98485e-007 3.69707e-008 8.28851 -2.84914 -10.3378 -1.05593 -25.9356 -5.10975 10.3776 6.5756 12.3439 16.6658 -1.24407e-007 1.59357e-007 29.2423 0.428849 0.350122 5.08462 3.79881 4.06358 2.43917 -0 0 -0 -9.45643 -13.0169 -2.1485 39.2322 28.2795 -14.1974 -3.9574 -6.51547 -121.369 1.0536e-005 6.74391 -20.7607 2.42399 1.00246 -0.0424332 32.1525 -34.0381 -23.591 7.28044 9.13173 -128.834 -2.86302e-006 -5.70299 -10.9085 -2.35735 -0.256701 39.7776 33.9983 -36.8254 -62.8657 
-0.0184372 0.895662 0.001 84.9225 -66.78 81.3208 17.855 4.6188 0.950917 34.2438 3.57513 5.23399 -3.90906 -12.822 27.8859 9.60176e-007 1.62231e-008 8.31217 -2.90393 -10.3272 -1.04113 -25.9519 -5.10028 10.3515 6.57728 12.3508 16.6728 -4.74684e-007 -2.49313e-007 29.249 0.454637 0.370201 5.04904 3.78273 4.05253 2.40648 -0 0 -0 -9.40377 -13.0009 -2.13374 38.8719 28.3489 -14.2576 -3.91838 -6.46423 -121.316 -2.29409e-006 6.70066 -20.7519 2.44132 1.12985 -0.0481659 31.8432 -34.2468 -23.5801 7.36448 9.19731 -128.96 -9.14992e-006 -5.77119 -10.9755 -2.3787 -0.141693 39.7398 33.9927 -36.6411 -62.6524 
-0.0184308 0.895691 0.001071 84.9569 -66.7024 81.3492 17.8257 4.62582 0.958556 34.2036 3.55009 5.20537 -3.90522 -12.822 27.9018 -1.51516e-005 -4.34986e-007 8.33397 -2.95568 -10.3208 -1.00649 -25.9984 -5.09135 10.313 6.5863 12.3746 16.6851 -1.47305e-007 -7.05652e-007 29.2593 0.47118 0.387815 5.01346 3.7537 4.02999 2.37997 -0 0 -0 -9.34362 -12.9797 -2.11647 38.4889 28.4312 -14.3055 -3.90253 -6.44039 -121.306 -8.46514e-006 6.59228 -20.7476 2.46723 1.27475 -0.0549208 31.5309 -34.4513 -23.4824 7.38408 9.18068 -129.086 3.46884e-006 -5.77605 -11.048 -2.39617 -0.0297392 39.6663 33.9743 -36.4261 -62.4266 
-0.0183957 0.895728 0.00113 84.9926 -66.597 81.3776 17.7938 4.63162 0.969233 34.1365 3.51866 5.17256 -3.89988 -12.8222 27.9242 1.5552e-005 -2.08312e-006 8.35005 -3.00945 -10.316 -0.952524 -26.0768 -5.08074 10.2571 6.59913 12.4052 16.6964 1.12257e-007 4.26921e-007 29.2756 0.476752 0.397946 4.97821 3.70779 3.9984 2.35634 -0 0 -0 -9.25792 -12.9487 -2.09181 38.0448 28.5057 -14.3244 -3.86662 -6.36683 -121.362 -9.96502e-007 6.49615 -20.7012 2.5058 1.43552 -0.062815 31.2142 -34.6297 -23.244 7.41222 9.1744 -129.213 1.76522e-007 -5.71378 -11.1438 -2.38405 0.0658561 39.5547 33.9138 -36.1176 -62.2585 
-0.0183308 0.895767 0.00118 85.0287 -66.4599 81.4104 17.7676 4.63503 0.978332 34.0325 3.47839 5.13368 -3.89377 -12.8269 27.9552 3.22886e-006 -2.00511e-006 8.36214 -3.06191 -10.3117 -0.882983 -26.1803 -5.06703 10.1844 6.60687 12.4235 16.7028 3.44859e-007 -2.83908e-007 29.292 0.471454 0.400575 4.93956 3.65179 3.95085 2.33443 -0 0 -0 -9.14278 -12.8975 -2.05734 37.5135 28.548 -14.3067 -3.8105 -6.24509 -121.478 -9.47564e-006 6.45036 -20.6357 2.55858 1.62356 -0.0725406 30.8823 -34.7666 -22.8108 7.48885 9.22487 -129.352 9.15795e-006 -5.59124 -11.2328 -2.31656 0.125682 39.3952 33.7702 -35.6337 -62.1928 
-0.0182412 0.895789 0.001215 85.0571 -66.2923 81.4439 17.7893 4.63373 0.97304 33.8581 3.43466 5.1028 -3.89112 -12.8367 27.9782 -2.78793e-006 5.20034e-006 8.38521 -3.1657 -10.3152 -0.828247 -26.2591 -5.05667 10.1296 6.61391 12.4293 16.688 1.97071e-007 1.50411e-007 29.3057 0.472785 0.392597 4.89137 3.57792 3.89229 2.31573 -0 0 -0 -8.98948 -12.8352 -2.01271 36.9037 28.5446 -14.2696 -3.78928 -6.17063 -121.64 6.59136e-006 6.38815 -20.587 2.62035 1.8444 -0.0843952 30.5388 -34.8538 -22.1356 7.58891 9.29912 -129.506 1.2308e-005 -5.43746 -11.2965 -2.15893 0.13623 39.1789 33.4774 -34.9019 -62.2563 
-0.0181225 0.895807 0.001218 85.0804 -66.0901 81.4742 17.786 4.62449 0.974198 33.6831 3.38271 5.05926 -3.88844 -12.8486 28.004 1.5625e-005 -2.48153e-006 8.41959 -3.30403 -10.3271 -0.771457 -26.3328 -5.04653 10.0777 6.61981 12.431 16.6697 9.71375e-008 -2.74471e-007 29.3131 0.493245 0.370269 4.84205 3.47764 3.82546 2.29832 -0 0 -0 -8.78894 -12.763 -1.95626 36.2359 28.4717 -14.2319 -3.78918 -6.12313 -121.837 -9.39885e-006 6.21544 -20.533 2.67946 2.10679 -0.0985732 30.1825 -34.8888 -21.1815 7.69731 9.37547 -129.682 -5.48295e-006 -5.28236 -11.3299 -1.92261 0.165348 38.9124 33.023 -33.9493 -62.442 
-0.0179738 0.895833 0.001187 85.1084 -65.8434 81.5076 17.6942 4.60633 0.992987 33.5518 3.32011 4.99084 -3.88131 -12.8529 28.0385 1.9896e-006 -1.0668e-007 8.46375 -3.46578 -10.3439 -0.702677 -26.4267 -5.03888 10.0223 6.62718 12.4377 16.6556 -1.1569e-007 1.59994e-007 29.3143 0.53495 0.337767 4.79328 3.34564 3.75043 2.28468 -0 0 -0 -8.55716 -12.6873 -1.89281 35.5716 28.3133 -14.2175 -3.74263 -5.99375 -122.065 3.66336e-006 5.90255 -20.4127 2.72055 2.3996 -0.113992 29.8073 -34.8636 -19.9379 7.83722 9.4845 -129.873 -3.46852e-006 -5.10618 -11.3412 -1.64141 0.214852 38.6019 32.3729 -32.8013 -62.7358 
-0.0177895 0.895864 0.001132 85.1515 -65.5478 81.5533 17.5766 4.58785 1.00799 33.3934 3.25781 4.92714 -3.87381 -12.8502 28.0663 5.67533e-006 2.8992e-006 8.51123 -3.64766 -10.3614 -0.620168 -26.5528 -5.03784 9.96634 6.6423 12.4585 16.6399 -1.23285e-007 -3.41361e-007 29.3122 0.587047 0.297994 4.7433 3.18119 3.6727 2.28083 -0 0 -0 -8.30966 -12.6131 -1.82676 35.0019 28.0505 -14.2529 -3.62361 -5.7474 -122.309 -4.50527e-006 5.45754 -20.2421 2.72982 2.69418 -0.128413 29.4077 -34.7542 -18.4375 8.03995 9.67336 -130.051 -2.68313e-006 -4.86889 -11.3269 -1.33781 0.247604 38.2602 31.5096 -31.4754 -63.1324 
-0.0175577 0.895889 0.001051 85.208 -65.2017 81.6057 17.4445 4.57077 1.02382 33.1964 3.19391 4.86721 -3.86581 -12.8418 28.0891 1.59381e-005 -2.72375e-006 8.55032 -3.85092 -10.3799 -0.516328 -26.7122 -5.04131 9.90541 6.66434 12.4889 16.6173 1.15128e-007 7.06812e-008 29.3161 0.633206 0.261524 4.69642 2.96774 3.59215 2.30194 -0 0 -0 -8.02814 -12.5544 -1.75601 34.6036 27.6775 -14.374 -3.47435 -5.46139 -122.534 1.53621e-006 4.9399 -20.061 2.68579 2.94862 -0.138259 29.0332 -34.5237 -16.7649 8.22514 9.86846 -130.145 -5.39982e-007 -4.64899 -11.2909 -1.00587 0.223682 37.8883 30.4338 -30.0024 -63.6026 
